<svg width="34" height="34" viewBox="0 0 34 34" fill="none" xmlns="http://www.w3.org/2000/svg">
<g id="1831921 1" clip-path="url(#clip0_16_17)" filter="url(#filter0_d_16_17)">
<g id="Group">
<path id="Vector" d="M9.01644 0.0120506C8.98801 0.0161133 8.88443 0.0303326 8.78288 0.0425196C8.68337 0.0547075 8.53308 0.0872078 8.45184 0.113614C8.11267 0.225332 7.63336 0.517832 7.21499 0.87127C6.97127 1.07439 6.43713 1.61268 6.43713 1.6533C6.43713 1.66549 7.88114 3.11986 9.64401 4.88299L12.8509 8.09033L13.0012 7.98268C13.5434 7.58861 13.8542 7.13361 14.0024 6.51205C14.2177 5.61221 14.0227 4.51939 13.4033 3.16861C13.2591 2.85174 12.9788 2.32361 12.8184 2.06564C12.0791 0.867208 11.0149 0.160332 9.74352 0.0222073C9.55871 0.00189495 9.13018 -0.00419903 9.01644 0.0120506Z" fill="white"/>
<path id="Vector_2" d="M5.80171 2.50021C5.71843 2.62818 5.62905 2.77037 5.60264 2.81709L5.55389 2.90443L8.64343 5.99396L11.733 9.0835L11.8325 8.97584C11.8853 8.9149 12.0011 8.79709 12.0884 8.71381L12.2469 8.56146L9.10046 5.41506L5.95405 2.26865L5.80171 2.50021Z" fill="white"/>
<path id="Vector_3" d="M5.15154 3.66013C4.75144 4.51122 4.44274 5.39076 4.20105 6.36779C3.94109 7.41388 3.93297 8.35232 4.17465 9.55685C4.68645 12.1325 6.4615 15.3378 9.17891 18.5959C9.92224 19.4856 10.1436 19.7172 10.8341 20.3204C11.9999 21.3422 13.2083 22.2684 14.4086 23.0647C17.2438 24.9456 19.746 25.9308 21.8521 25.9937C22.6726 26.0181 23.3286 25.9125 24.4415 25.5733C25.2133 25.3376 26.1881 24.9517 26.6024 24.7161L26.7101 24.6531L23.6474 21.59C21.9617 19.904 20.5766 18.5248 20.5705 18.5248C20.5624 18.5248 20.4852 18.5675 20.3999 18.6203C19.6647 19.0611 18.8178 19.1484 17.9526 18.8681C17.6845 18.7828 17.1545 18.5167 16.8762 18.3318C15.8628 17.6534 13.8135 15.6933 12.4284 14.0764C11.8516 13.402 11.5957 13.0425 11.3602 12.5651C10.8382 11.5109 10.8423 10.5014 11.3744 9.60763C11.4292 9.51419 11.4739 9.43294 11.4739 9.42482C11.4739 9.4106 5.34854 3.29044 5.33432 3.29044C5.33026 3.29044 5.24699 3.45701 5.15154 3.66013Z" fill="white"/>
<path id="Vector_4" d="M23.8119 15.9372C23.034 16.0509 22.4755 16.3719 22.049 16.9508L21.913 17.1336L25.128 20.347C26.8949 22.1163 28.347 23.5625 28.3551 23.5625C28.3897 23.5625 29.066 22.8678 29.2081 22.6891C29.5047 22.3113 29.7484 21.9111 29.8621 21.6084C29.9332 21.4236 29.9738 21.1656 29.9901 20.8305C30.0307 19.8758 29.7321 18.9678 29.1289 18.2203C28.9522 18.0009 28.5806 17.6475 28.3247 17.4566C27.6606 16.9569 26.4095 16.3577 25.5281 16.1159C25.0386 15.9798 24.7725 15.9413 24.2993 15.9352C24.0658 15.9311 23.8464 15.9331 23.8119 15.9372Z" fill="white"/>
<path id="Vector_5" d="M21.2996 17.8888C21.2285 17.966 21.1128 18.0777 21.0458 18.1407L20.9219 18.2544L24.0069 21.3399C25.7048 23.038 27.1061 24.4254 27.1203 24.4233C27.1488 24.4213 27.6098 24.1329 27.6829 24.0699L27.7317 24.0313L24.5938 20.893C22.8675 19.1665 21.4499 17.7527 21.4438 17.7527C21.4377 17.7527 21.3727 17.8136 21.2996 17.8888Z" fill="white"/>
</g>
</g>
<defs>
<filter id="filter0_d_16_17" x="0" y="0" width="33.9962" height="34" filterUnits="userSpaceOnUse" color-interpolation-filters="sRGB">
<feFlood flood-opacity="0" result="BackgroundImageFix"/>
<feColorMatrix in="SourceAlpha" type="matrix" values="0 0 0 0 0 0 0 0 0 0 0 0 0 0 0 0 0 0 127 0" result="hardAlpha"/>
<feOffset dy="4"/>
<feGaussianBlur stdDeviation="2"/>
<feComposite in2="hardAlpha" operator="out"/>
<feColorMatrix type="matrix" values="0 0 0 0 0 0 0 0 0 0 0 0 0 0 0 0 0 0 0.25 0"/>
<feBlend mode="normal" in2="BackgroundImageFix" result="effect1_dropShadow_16_17"/>
<feBlend mode="normal" in="SourceGraphic" in2="effect1_dropShadow_16_17" result="shape"/>
</filter>
<clipPath id="clip0_16_17">
<rect width="25.9962" height="26" fill="white" transform="translate(4)"/>
</clipPath>
</defs>
</svg>
