<svg width="59" height="59" viewBox="0 0 59 59" fill="none" xmlns="http://www.w3.org/2000/svg">
<g id="Group_3590_2_">
<g id="Group_3589_2_">
<path id="_2_2_" d="M19.0227 27.7718H35.0837V23.4846C35.0837 23.1983 35.1515 23.0326 35.2946 22.9799C35.4378 22.9271 35.6035 23.0024 35.7843 23.2134L41.0877 28.5177C41.2911 28.691 41.4041 28.9471 41.4041 29.2184C41.4116 29.4896 41.2986 29.7458 41.0877 29.9191L35.7843 35.2611C35.6035 35.4419 35.4378 35.5097 35.2946 35.457C35.1515 35.4042 35.0837 35.2385 35.0837 34.9522V30.6575H19.0227C18.7515 30.665 18.4878 30.5595 18.2995 30.3637C18.1036 30.1753 17.9982 29.9116 18.0057 29.6404V28.7437C18.0057 28.4875 18.1111 28.2465 18.2995 28.0657C18.4878 27.8773 18.7515 27.7718 19.0227 27.7718Z" fill="#E9E9E9"/>
</g>
</g>
</svg>
