<svg width="60" height="59" viewBox="0 0 60 59" fill="none" xmlns="http://www.w3.org/2000/svg">
<g id="Group_3590_2_">
<g id="Group_3589_2_">
<path id="_2_2_" d="M19.5781 27.7718H35.6391V23.4846C35.6391 23.1983 35.7069 23.0326 35.85 22.9799C35.9932 22.9271 36.1589 23.0024 36.3397 23.2134L41.6431 28.5177C41.8465 28.691 41.9595 28.9471 41.9595 29.2184C41.9671 29.4896 41.854 29.7458 41.6431 29.9191L36.3397 35.2611C36.1589 35.4419 35.9932 35.5097 35.85 35.457C35.7069 35.4042 35.6391 35.2385 35.6391 34.9522V30.6575H19.5781C19.3069 30.665 19.0432 30.5595 18.8549 30.3637C18.659 30.1753 18.5536 29.9116 18.5612 29.6404V28.7437C18.5612 28.4875 18.6666 28.2465 18.8549 28.0657C19.0432 27.8773 19.3069 27.7718 19.5781 27.7718Z" fill="#421B9B"/>
</g>
</g>
</svg>
